<?xml version="1.0" encoding="UTF-8" standalone="no"?>
<!-- Created with Inkscape (http://www.inkscape.org/) -->

<svg
   xmlns:dc="http://purl.org/dc/elements/1.1/"
   xmlns:cc="http://creativecommons.org/ns#"
   xmlns:rdf="http://www.w3.org/1999/02/22-rdf-syntax-ns#"
   xmlns:svg="http://www.w3.org/2000/svg"
   xmlns="http://www.w3.org/2000/svg"
   xmlns:sodipodi="http://sodipodi.sourceforge.net/DTD/sodipodi-0.dtd"
   xmlns:inkscape="http://www.inkscape.org/namespaces/inkscape"
   width="153.03574"
   height="30.82399"
   id="svg2"
   version="1.1"
   inkscape:version="0.92.3 (2405546, 2018-03-11)"
   sodipodi:docname="aramido-logo.svg"
   inkscape:export-filename="/Users/Armin/Documents/aramido/aramido/marketing/ci/logo/logo-tuerkisblau/aramido-logo.png"
   inkscape:export-xdpi="102.33"
   inkscape:export-ydpi="102.33">
  <defs
     id="defs4" />
  <sodipodi:namedview
     id="base"
     pagecolor="#ffffff"
     bordercolor="#666666"
     borderopacity="1.0"
     inkscape:pageopacity="0.0"
     inkscape:pageshadow="2"
     inkscape:zoom="28.171134"
     inkscape:cx="16.06539"
     inkscape:cy="10.606698"
     inkscape:document-units="px"
     inkscape:current-layer="layer1"
     showgrid="false"
     showguides="false"
     inkscape:guide-bbox="true"
     inkscape:window-width="2560"
     inkscape:window-height="1412"
     inkscape:window-x="0"
     inkscape:window-y="0"
     inkscape:window-maximized="1"
     fit-margin-top="0"
     fit-margin-left="0"
     fit-margin-right="0"
     fit-margin-bottom="0">
    <sodipodi:guide
       orientation="1,0"
       position="-237.87996,171.73796"
       id="guide3003"
       inkscape:locked="false" />
    <sodipodi:guide
       orientation="1,0"
       position="-142.00395,642.53605"
       id="guide3026"
       inkscape:locked="false" />
    <sodipodi:guide
       orientation="0,1"
       position="-30.77513,535.12096"
       id="guide3087"
       inkscape:locked="false" />
    <sodipodi:guide
       orientation="0,1"
       position="-22.38356,530.32309"
       id="guide3089"
       inkscape:locked="false" />
    <sodipodi:guide
       orientation="0,1"
       position="-13.4651,462.22798"
       id="guide3106"
       inkscape:locked="false" />
    <sodipodi:guide
       orientation="0,1"
       position="-22.38356,459.26941"
       id="guide3108"
       inkscape:locked="false" />
    <sodipodi:guide
       orientation="0,1"
       position="-22.38356,392.75862"
       id="guide3151"
       inkscape:locked="false" />
    <sodipodi:guide
       orientation="0,1"
       position="-206.00148,369.35172"
       id="guide3153"
       inkscape:locked="false" />
    <sodipodi:guide
       orientation="1,0"
       position="42.59457,-198.79707"
       id="guide3155"
       inkscape:locked="false" />
    <sodipodi:guide
       orientation="0,1"
       position="-15.20416,389.73737"
       id="guide3157"
       inkscape:locked="false" />
    <sodipodi:guide
       orientation="0,1"
       position="-236.23702,351.41234"
       id="guide3159"
       inkscape:locked="false" />
    <sodipodi:guide
       orientation="0,1"
       position="-131.82512,348.11425"
       id="guide3161"
       inkscape:locked="false" />
    <sodipodi:guide
       orientation="0,1"
       position="85.53636,327.67426"
       id="guide3163"
       inkscape:locked="false" />
    <sodipodi:guide
       orientation="0,1"
       position="13.13454,330.76505"
       id="guide3165"
       inkscape:locked="false" />
    <sodipodi:guide
       orientation="1,0"
       position="295.71306,496.56306"
       id="guide3973"
       inkscape:locked="false" />
    <sodipodi:guide
       orientation="1,0"
       position="-228.66304,372.9429"
       id="guide3871"
       inkscape:locked="false" />
    <sodipodi:guide
       orientation="0,1"
       position="-224.51461,365.45096"
       id="guide3875"
       inkscape:locked="false" />
    <sodipodi:guide
       orientation="0,1"
       position="-233.43063,369.35172"
       id="guide3877"
       inkscape:locked="false" />
    <sodipodi:guide
       orientation="0,1"
       position="-189.23099,157.35754"
       id="guide4163"
       inkscape:locked="false" />
    <sodipodi:guide
       orientation="0,1"
       position="254.09477,153.45961"
       id="guide4165"
       inkscape:locked="false" />
    <sodipodi:guide
       orientation="0,1"
       position="38.81765,-198.79707"
       id="guide3176"
       inkscape:locked="false" />
    <sodipodi:guide
       orientation="0,1"
       position="-234.40277,166.56609"
       id="guide3983"
       inkscape:locked="false" />
    <sodipodi:guide
       orientation="1,0"
       position="-42.00395,191.85018"
       id="guide3985"
       inkscape:locked="false" />
    <sodipodi:guide
       orientation="0,1"
       position="27.33208,191.30989"
       id="guide3987"
       inkscape:locked="false" />
    <sodipodi:guide
       orientation="1,0"
       position="19.41782,168.74519"
       id="guide3991"
       inkscape:locked="false" />
    <sodipodi:guide
       orientation="1,0"
       position="15.79696,169.86793"
       id="guide3993"
       inkscape:locked="false" />
    <sodipodi:guide
       orientation="0,1"
       position="92.68941,175.90495"
       id="guide4025"
       inkscape:locked="false" />
    <sodipodi:guide
       orientation="1,0"
       position="-16.46833,188.2379"
       id="guide4027"
       inkscape:locked="false" />
    <sodipodi:guide
       orientation="0,1"
       position="25.41021,187.2287"
       id="guide4029"
       inkscape:locked="false" />
    <sodipodi:guide
       orientation="1,0"
       position="91.59178,202.99928"
       id="guide4031"
       inkscape:locked="false" />
    <sodipodi:guide
       orientation="1,0"
       position="87.97961,178.40023"
       id="guide4033"
       inkscape:locked="false" />
    <sodipodi:guide
       orientation="1,0"
       position="77.762926,22.643701"
       id="guide4035"
       inkscape:locked="false" />
    <sodipodi:guide
       orientation="0,1"
       position="80.211,173.27639"
       id="guide4037"
       inkscape:locked="false" />
    <sodipodi:guide
       orientation="0,1"
       position="-25.59358,182.07947"
       id="guide3122"
       inkscape:locked="false" />
    <sodipodi:guide
       orientation="1,0"
       position="-255.93926,173.27639"
       id="guide3124"
       inkscape:locked="false" />
    <sodipodi:guide
       orientation="0,1"
       position="-252.85107,170.51456"
       id="guide3126"
       inkscape:locked="false" />
    <sodipodi:guide
       orientation="0,1"
       position="-249.40031,161.29041"
       id="guide3128"
       inkscape:locked="false" />
    <sodipodi:guide
       orientation="1,0"
       position="-242.10062,170.51456"
       id="guide3130"
       inkscape:locked="false" />
    <sodipodi:guide
       orientation="1,0"
       position="-212.69745,159.94454"
       id="guide3134"
       inkscape:locked="false" />
    <sodipodi:guide
       orientation="-0.70710678,0.70710678"
       position="-285.96947,107.51249"
       id="guide3167"
       inkscape:locked="false" />
    <sodipodi:guide
       orientation="0,1"
       position="-261.61602,80.896109"
       id="guide3169"
       inkscape:locked="false" />
    <sodipodi:guide
       orientation="1,0"
       position="-252.3274,95.430689"
       id="guide3171"
       inkscape:locked="false" />
    <sodipodi:guide
       orientation="0,1"
       position="-187.55578,102.84667"
       id="guide3173"
       inkscape:locked="false" />
    <sodipodi:guide
       orientation="0,1"
       position="-188.28584,99.777099"
       id="guide3175"
       inkscape:locked="false" />
    <sodipodi:guide
       orientation="1,0"
       position="-219.46839,101.03516"
       id="guide3183"
       inkscape:locked="false" />
    <sodipodi:guide
       orientation="0,1"
       position="-133.96677,57.862649"
       id="guide3252"
       inkscape:locked="false" />
    <sodipodi:guide
       orientation="1,0"
       position="-125.63728,60.419309"
       id="guide3254"
       inkscape:locked="false" />
    <sodipodi:guide
       orientation="1,0"
       position="-121.95666,51.063019"
       id="guide3256"
       inkscape:locked="false" />
    <sodipodi:guide
       orientation="0,1"
       position="44.736109,13.318695"
       id="guide3043"
       inkscape:locked="false" />
    <sodipodi:guide
       orientation="0,1"
       position="39.261553,12.39946"
       id="guide3045"
       inkscape:locked="false" />
    <sodipodi:guide
       orientation="1,0"
       position="51.870096,13.618258"
       id="guide3047"
       inkscape:locked="false" />
    <sodipodi:guide
       orientation="1,0"
       position="122.40709,23.579402"
       id="guide3051"
       inkscape:locked="false" />
    <sodipodi:guide
       orientation="-0.70710678,0.70710678"
       position="108.54845,23.207211"
       id="guide3053"
       inkscape:locked="false" />
    <sodipodi:guide
       orientation="0,1"
       position="129.54441,19.222577"
       id="guide3055"
       inkscape:locked="false" />
    <sodipodi:guide
       orientation="1,0"
       position="124.35562,17.799493"
       id="guide3057"
       inkscape:locked="false" />
    <sodipodi:guide
       orientation="0,1"
       position="77.317092,23.230325"
       id="guide3059"
       inkscape:locked="false" />
    <sodipodi:guide
       orientation="1,0"
       position="67.344478,20.226808"
       id="guide3061"
       inkscape:locked="false" />
    <sodipodi:guide
       orientation="0,1"
       position="62.956527,18.021101"
       id="guide3063"
       inkscape:locked="false" />
    <sodipodi:guide
       orientation="0,1"
       position="93.719109,20.226808"
       id="guide3065"
       inkscape:locked="false" />
  </sodipodi:namedview>
  <metadata
     id="metadata7">
    <rdf:RDF>
      <cc:Work
         rdf:about="">
        <dc:format>image/svg+xml</dc:format>
        <dc:type
           rdf:resource="http://purl.org/dc/dcmitype/StillImage" />
        <dc:title />
      </cc:Work>
    </rdf:RDF>
  </metadata>
  <g
     inkscape:label="Ebene 1"
     inkscape:groupmode="layer"
     id="layer1"
     transform="translate(-292.00395,-690.79637)">
    <text
       xml:space="preserve"
       style="font-style:normal;font-variant:normal;font-weight:bold;font-stretch:normal;line-height:0%;font-family:Ubuntu;-inkscape-font-specification:'Sans Bold';letter-spacing:0px;word-spacing:0px;fill:#000000;fill-opacity:1;stroke:none"
       x="181.42857"
       y="169.50504"
       id="text2991"><tspan
         sodipodi:role="line"
         id="tspan2995"
         x="181.42857"
         y="169.50504"
         style="font-size:40px;line-height:1.25"> </tspan></text>
    <text
       xml:space="preserve"
       style="font-style:normal;font-variant:normal;font-weight:bold;font-stretch:normal;line-height:0%;font-family:Ubuntu;-inkscape-font-specification:'Sans Bold';letter-spacing:0px;word-spacing:0px;fill:#000000;fill-opacity:1;stroke:none"
       x="378.04877"
       y="248.29713"
       id="text3161"><tspan
         sodipodi:role="line"
         id="tspan3163"
         x="378.04877"
         y="248.29713"
         style="font-size:40px;line-height:1.25"> </tspan></text>
    <g
       transform="translate(250.00395,27.038662)"
       id="g3268"
       style="fill:#0066cc;fill-opacity:1">
      <path
         sodipodi:nodetypes="cszsccccccccccsccccccccccsccccsccczzscc"
         inkscape:connector-curvature="0"
         id="path3270"
         style="font-size:44px;font-style:normal;font-variant:normal;font-weight:normal;font-stretch:normal;line-height:125%;letter-spacing:0px;word-spacing:0px;fill:#0066cc;fill-opacity:1;stroke:none;font-family:Electrolize;-inkscape-font-specification:Electrolize"
         d="m 119.48246,674.45905 c 0.39118,-0.5134 0.41923,-0.4903 0.90518,-0.78271 0.55052,-0.33125 0.81352,-0.48319 1.25966,-0.7016 0.44613,-0.21841 0.71281,-0.39304 1.78048,-0.39304 l 6.996,0 c 0.70397,2e-5 1.40797,0.29336 2.112,0.88 l 1.056,0.88 c 0.70397,0.58669 1.05597,1.32002 1.056,2.2 l 0,18.04 -3.696,0 0,-17.116 c -3e-5,-0.43998 -0.0294,-0.71865 -0.088,-0.836 -0.0294,-0.14665 -0.17603,-0.32265 -0.44,-0.528 -0.26403,-0.20531 -0.46936,-0.32265 -0.616,-0.352 -0.14669,-0.0586 -0.48402,-0.088 -1.012,-0.088 l -4.84,0 c -0.52802,2e-5 -0.89469,0.0294 -1.1,0.088 -0.17602,0.0587 -0.52802,0.24935 -1.056,0.572 -0.67468,0.41069 -1.02668,0.79202 -1.056,1.144 l 0,17.116 -3.696,0 0,-17.116 c -1e-5,-0.43998 -0.0294,-0.71865 -0.088,-0.836 -0.0293,-0.14665 -0.17601,-0.32265 -0.44,-0.528 -0.26401,-0.20531 -0.46934,-0.32265 -0.616,-0.352 -0.14668,-0.0586 -0.48401,-0.088 -1.012,-0.088 l -4.444,0 c -0.52801,2e-5 -0.89467,0.0294 -1.1,0.088 -0.176,0.0587 -0.528,0.24935 -1.056,0.572 -0.528,0.32269 -0.836,0.55735 -0.924,0.704 -0.088,0.14669 -0.132,0.44002 -0.132,0.88 l 0,16.676 -3.69599,0 0,-17.97052 c 0.0209,-0.75554 0.40048,-1.25206 2.00543,-2.25629 1.60495,-1.00423 0.20494,-0.15352 1.45709,-0.89167 1.25215,-0.73815 1.43842,-0.88152 2.34217,-0.88152 l 7.1753,0 c 0.70399,2e-5 1.67439,0.2699 2.112,0.88" />
      <path
         id="path3272"
         style="font-size:44px;font-style:normal;font-variant:normal;font-weight:normal;font-stretch:normal;line-height:125%;letter-spacing:0px;word-spacing:0px;fill:#0066cc;fill-opacity:1;stroke:none;font-family:Electrolize;-inkscape-font-specification:Electrolize"
         d="m 144.7011,694.5817 -3.696,0 0,-22 3.696,0 0,22 m 0.396,-28.864 0,0.352 c 0,0.55736 -0.0293,0.90936 -0.088,1.056 -0.0293,0.1467 -0.16134,0.3227 -0.396,0.528 -0.23467,0.2347 -0.77733,0.35203 -1.628,0.352 l -0.22,0 c -0.64533,3e-5 -1.04133,-0.0146 -1.188,-0.044 -0.14667,-0.0293 -0.32266,-0.13197 -0.528,-0.308 -0.20533,-0.2053 -0.33733,-0.3813 -0.396,-0.528 -0.0293,-0.14664 -0.044,-0.49864 -0.044,-1.056 l 0,-0.352 c 0,-0.5573 0.0147,-0.9093 0.044,-1.056 0.0587,-0.14663 0.20534,-0.32263 0.44,-0.528 0.176,-0.17597 0.33733,-0.27863 0.484,-0.308 0.14667,-0.0293 0.54267,-0.044 1.188,-0.044 l 0.176,0 c 0.88,3e-5 1.452,0.11737 1.716,0.352 0.20533,0.20537 0.32266,0.38137 0.352,0.528 0.0587,0.1467 0.088,0.4987 0.088,1.056"
         inkscape:connector-curvature="0" />
      <path
         sodipodi:nodetypes="cccccsscccsccsccccccsssscccccccszzc"
         inkscape:connector-curvature="0"
         id="path3274"
         style="font-size:44px;font-style:normal;font-variant:normal;font-weight:normal;font-stretch:normal;line-height:125%;letter-spacing:0px;word-spacing:0px;fill:#0066cc;fill-opacity:1;stroke:none;font-family:Electrolize;-inkscape-font-specification:Electrolize"
         d="m 163.20243,675.6617 -6.292,0 c -0.52801,2e-5 -0.86534,0.0294 -1.012,0.088 -0.14667,0.0294 -0.352,0.14669 -0.616,0.352 -0.264,0.20535 -0.42534,0.38135 -0.484,0.528 -0.0293,0.11735 -0.044,0.39602 -0.044,0.836 l 0,12.232 c 0,0.44001 0.0147,0.73334 0.044,0.88 0.0587,0.11734 0.22,0.27867 0.484,0.484 0.264,0.20534 0.46933,0.33734 0.616,0.396 0.14666,0.0293 0.48399,0.044 1.012,0.044 l 6.248,0 c 0.52799,10e-6 0.87999,-0.0293 1.056,-0.088 0.20532,-0.0587 0.57199,-0.24933 1.1,-0.572 0.52798,-0.32266 0.83598,-0.55733 0.924,-0.704 0.088,-0.14666 0.13198,-0.43999 0.132,-0.88 l 0,-10.956 c -2e-5,-0.58665 -0.35202,-1.17331 -1.056,-1.76 -0.70401,-0.58665 -1.40801,-0.87998 -2.112,-0.88 m -7.92,18.92 c -0.704,0 -1.408,-0.29333 -2.112,-0.88 l -1.056,-0.88 c -0.704,-0.58666 -1.056,-1.31999 -1.056,-2.2 l 0,-14.08 c 0,-0.87998 0.352,-1.61331 1.056,-2.2 l 1.056,-0.88 c 0.704,-0.58664 1.408,-0.87998 2.112,-0.88 l 7.72211,-0.0109 c 1.4058,-0.0381 2.4586,0.72603 3.35108,1.62801 l 0.0108,-10.44105 3.68062,0 -0.0253,26.80578 c -0.001,1.52483 -0.44966,1.81481 -1.20438,2.34723 -0.75473,0.53242 -0.79375,0.62885 -1.3022,0.94751 -0.50845,0.31866 -1.16348,0.72347 -1.69147,0.72347" />
      <path
         id="path3276"
         style="font-size:44px;font-style:normal;font-variant:normal;font-weight:normal;font-stretch:normal;line-height:125%;letter-spacing:0px;word-spacing:0px;fill:#0066cc;fill-opacity:1;stroke:none;font-family:Electrolize;-inkscape-font-specification:Electrolize"
         d="m 180.25174,672.5817 10.56,0 c 0.70399,2e-5 1.40799,0.29336 2.112,0.88 l 1.056,0.88 c 0.70398,0.58669 1.05598,1.32002 1.056,2.2 l 0,14.08 c -2e-5,0.88001 -0.35202,1.61334 -1.056,2.2 l -1.056,0.88 c -0.70401,0.58667 -1.40801,0.88 -2.112,0.88 l -10.56,0 c -0.704,0 -1.408,-0.29333 -2.112,-0.88 l -1.056,-0.88 c -0.704,-0.58666 -1.056,-1.31999 -1.056,-2.2 l 0,-14.08 c 0,-0.87998 0.352,-1.61331 1.056,-2.2 l 1.056,-0.88 c 0.704,-0.58664 1.408,-0.87998 2.112,-0.88 m 11.088,17.116 0,-12.232 c -1e-5,-0.43998 -0.0293,-0.71865 -0.088,-0.836 -0.0294,-0.14665 -0.17601,-0.32265 -0.44,-0.528 -0.26401,-0.20531 -0.46935,-0.32265 -0.616,-0.352 -0.14668,-0.0586 -0.48401,-0.088 -1.012,-0.088 l -7.304,0 c -0.528,2e-5 -0.86534,0.0294 -1.012,0.088 -0.14667,0.0294 -0.352,0.14669 -0.616,0.352 -0.264,0.20535 -0.42534,0.38135 -0.484,0.528 -0.0293,0.11735 -0.044,0.39602 -0.044,0.836 l 0,12.232 c 0,0.44001 0.0147,0.73334 0.044,0.88 0.0587,0.11734 0.22,0.27867 0.484,0.484 0.264,0.20534 0.46933,0.33734 0.616,0.396 0.14666,0.0293 0.484,0.044 1.012,0.044 l 7.304,0 c 0.52799,10e-6 0.86532,-0.0147 1.012,-0.044 0.14665,-0.0587 0.35199,-0.19066 0.616,-0.396 0.26399,-0.20533 0.41065,-0.36666 0.44,-0.484 0.0587,-0.14666 0.088,-0.43999 0.088,-0.88"
         inkscape:connector-curvature="0" />
      <g
         id="g3280"
         transform="translate(1.6000073,0)"
         style="fill:#0066cc;fill-opacity:1">
        <path
           d="m 68.71731,673.2417 c 0.528,-0.32264 0.88,-0.51331 1.056,-0.572 0.20533,-0.0586 0.572,-0.088 1.1,-0.088 l 4.61583,0.007 0,3.06957 -4.08783,0.003 c -0.52801,2e-5 -0.89467,0.0294 -1.1,0.088 -0.176,0.0587 -0.528,0.24935 -1.056,0.572 -0.528,0.32269 -0.836,0.55735 -0.924,0.704 -0.088,0.14669 -0.132,0.44002 -0.132,0.88 l 0,16.676 -3.696,0 c 0,0 -0.004,-17.65814 -0.004,-18.05261 -1.1e-4,-0.39447 0.54248,-0.85589 0.76714,-1.02445 0.22466,-0.16856 3.46086,-2.26294 3.46086,-2.26294 z"
           style="font-size:44px;font-style:normal;font-variant:normal;font-weight:normal;font-stretch:normal;line-height:125%;letter-spacing:0px;word-spacing:0px;fill:#0066cc;fill-opacity:1;stroke:none;font-family:Electrolize;-inkscape-font-specification:Electrolize"
           id="path3282"
           inkscape:connector-curvature="0"
           sodipodi:nodetypes="ccsccccccscczzc" />
        <path
           d="m 95.97445,690.56687 c 0,0.73728 -0.4675,1.38297 -1.06888,1.88556 -0.60138,0.50259 -0.77407,0.61952 -1.23569,0.99031 -0.46162,0.37079 -1.4876,1.13896 -1.91609,1.13896 -0.71151,0 -9.67933,-0.0408 -9.67933,-0.0408 -0.704,-0.003 -1.40801,-0.29333 -2.112,-0.88 l -1.056,-0.88 c -0.704,-0.58666 -1.056,-1.31999 -1.056,-2.2 l 0,-5.28 c 0,-0.87999 0.352,-1.61332 1.056,-2.2 l 1.056,-0.88 c 0.70399,-0.58665 1.40799,-0.87998 2.112,-0.88 3.061642,-0.0275 5.933635,-0.0275 8.891145,-0.0275 0.44844,-2e-5 0.927247,0.26121 1.304484,0.64258 0,-1.2188 0.01237,-3.65282 0.01237,-4.53106 -2e-5,-0.43998 -0.0293,-0.71865 -0.088,-0.836 -0.0294,-0.14665 -0.17602,-0.32265 -0.44,-0.528 -0.26402,-0.20531 -0.46935,-0.32265 -0.616,-0.352 -0.14668,-0.0586 -0.50061,-0.033 -1.02859,-0.033 l -8.58286,0 0,-3.06957 10.22678,0 c 0.70398,2e-5 1.40865,0.22767 2.11267,0.81431 l 1.056,0.88 c 0.70398,0.58669 1.05598,1.32002 1.056,2.2 m -14.43201,9.724 0,3.432 c -10e-6,0.44001 0.0147,0.73334 0.044,0.88 0.0587,0.11734 0.21999,0.27867 0.484,0.484 0.26399,0.20534 0.46933,0.33734 0.616,0.396 0.14666,0.0293 0.48399,0.044 1.012,0.044 l 5.368,0 c 0.52798,1e-5 0.87998,-0.0293 1.056,-0.088 0.20532,-0.0587 0.57198,-0.24933 1.1,-0.572 0.52798,-0.32266 0.83598,-0.55733 0.924,-0.704 0.088,-0.14666 0.13198,-0.43999 0.132,-0.88 l 0,-2.992 c -2e-5,-0.43999 -0.0293,-0.71866 -0.088,-0.836 -0.0294,-0.14665 -0.17602,-0.32265 -0.44,-0.528 -0.26402,-0.20532 -0.46935,-0.32265 -0.616,-0.352 -0.14668,-0.0587 -0.48402,-0.088 -1.012,-0.088 l -6.424,0 c -0.52801,10e-6 -0.86534,0.0294 -1.012,0.088 -0.14667,0.0293 -0.35201,0.14668 -0.616,0.352 -0.26401,0.20535 -0.42534,0.38135 -0.484,0.528 -0.0293,0.11734 -0.044,0.39601 -0.044,0.836"
           style="font-size:44px;font-style:normal;font-variant:normal;font-weight:normal;font-stretch:normal;line-height:125%;letter-spacing:0px;word-spacing:0px;fill:#0066cc;fill-opacity:1;stroke:none;font-family:Electrolize;-inkscape-font-specification:Electrolize"
           id="path3284"
           inkscape:connector-curvature="0"
           sodipodi:nodetypes="czzsssssssscccccccscccccccccccscccccccccsccccc" />
        <path
           sodipodi:nodetypes="czzsssssssscccccccsccccccccccccscccccccccsccccc"
           inkscape:connector-curvature="0"
           id="path3049"
           style="font-style:normal;font-variant:normal;font-weight:normal;font-stretch:normal;font-size:44px;line-height:125%;font-family:Electrolize;-inkscape-font-specification:Electrolize;letter-spacing:0px;word-spacing:0px;fill:#0066cc;fill-opacity:1;stroke:none"
           d="m 58.523983,690.56687 c 0,0.73728 -0.4675,1.38297 -1.06888,1.88556 -0.60138,0.50259 -0.77407,0.61952 -1.23569,0.99031 -0.46162,0.37079 -1.4876,1.13896 -1.91609,1.13896 -0.71151,0 -9.67933,-0.0408 -9.67933,-0.0408 -0.704,-0.003 -1.40801,-0.29333 -2.112,-0.88 l -1.056,-0.88 c -0.704,-0.58666 -1.056,-1.31999 -1.056,-2.2 v -5.28 c 0,-0.87999 0.352,-1.61332 1.056,-2.2 l 1.056,-0.88 c 0.70399,-0.58665 1.40799,-0.87998 2.112,-0.88 3.061642,-0.0275 5.933635,-0.0275 8.891145,-0.0275 0.44844,-2e-5 0.927247,0.26121 1.304484,0.64258 0,-1.2188 0.01237,-3.65282 0.01237,-4.53106 -2e-5,-0.43998 -0.0293,-0.71865 -0.088,-0.836 -0.0294,-0.14665 -0.17602,-0.32265 -0.44,-0.528 -0.26402,-0.20531 -0.46935,-0.32265 -0.616,-0.352 -0.14668,-0.0586 -0.50061,-0.033 -1.02859,-0.033 h -8.58286 v -3.06957 h 10.22678 c 0.70398,2e-5 1.40865,0.22767 2.11267,0.81431 l 1.056,0.88 c 0.70398,0.58669 1.05598,1.32002 1.056,2.2 z m -14.428001,-4.34221 v 3.432 c -10e-6,0.44001 0.0147,0.73334 0.044,0.88 0.0587,0.11734 0.21999,0.27867 0.484,0.484 0.26399,0.20534 0.46933,0.33734 0.616,0.396 0.14666,0.0293 0.48399,0.044 1.012,0.044 h 5.368 c 0.52798,1e-5 0.87998,-0.0293 1.056,-0.088 0.20532,-0.0587 0.57198,-0.24933 1.1,-0.572 0.52798,-0.32266 0.83598,-0.55733 0.924,-0.704 0.088,-0.14666 0.13198,-0.43999 0.132,-0.88 v -2.992 c -2e-5,-0.43999 -0.0293,-0.71866 -0.088,-0.836 -0.0294,-0.14665 -0.17602,-0.32265 -0.44,-0.528 -0.26402,-0.20532 -0.46935,-0.32265 -0.616,-0.352 -0.14668,-0.0587 -0.48402,-0.088 -1.012,-0.088 h -6.424 c -0.52801,10e-6 -0.86534,0.0294 -1.012,0.088 -0.14667,0.0293 -0.35201,0.14668 -0.616,0.352 -0.26401,0.20535 -0.42534,0.38135 -0.484,0.528 -0.0293,0.11734 -0.044,0.39601 -0.044,0.836" />
      </g>
    </g>
  </g>
</svg>
