<svg width="148" height="37" viewBox="0 0 148 37" fill="none" xmlns="http://www.w3.org/2000/svg">
<path d="M17.0953 31.9139C16.5815 31.3749 15.9648 31.0874 15.2111 31.0874C14.4916 31.0874 13.875 31.3749 13.3611 31.9139C12.8472 32.4529 12.5731 33.1357 12.5731 33.8903C12.5731 34.3215 12.6416 34.7168 12.8129 35.0762C12.95 35.3636 13.1213 35.6152 13.3268 35.8308C13.8407 36.3698 14.4574 36.6573 15.1768 36.6573C15.9305 36.6573 16.5472 36.3698 17.0611 35.8308C17.2666 35.6152 17.4379 35.3636 17.575 35.0762C17.7463 34.7168 17.8148 34.3215 17.8148 33.8903C17.849 33.0997 17.6092 32.4529 17.0953 31.9139Z" fill="#232323"/>
<path d="M19.7334 31.7344C20.2473 32.2734 20.8639 32.525 21.6176 32.525C22.3713 32.525 22.988 32.2734 23.5019 31.7344C24.0158 31.1954 24.2556 30.5126 24.2556 29.7221C24.2556 28.9674 24.0158 28.3206 23.5019 27.7816C22.988 27.2426 22.3371 26.9551 21.6176 26.9551C20.8639 26.9551 20.2473 27.2426 19.7334 27.7816C19.2195 28.3206 18.9797 28.9674 18.9797 29.7221C18.9454 30.5126 19.2195 31.1954 19.7334 31.7344Z" fill="#232323"/>
<path d="M15.2453 24.9067C15.1425 24.9067 15.0397 24.9067 14.937 24.9427C14.7314 25.0145 14.5944 25.1223 14.4573 25.302C14.2175 25.5176 14.1147 25.8051 14.1147 26.1645C14.1147 26.5238 14.2175 26.8113 14.4573 27.0269C14.6972 27.2784 14.9712 27.3862 15.2796 27.3862C15.5879 27.3862 15.862 27.2784 16.1018 27.0269C16.3416 26.7753 16.4444 26.4879 16.4444 26.1645C16.4444 25.8051 16.3416 25.5176 16.1018 25.302C15.862 25.0505 15.5879 24.9067 15.2453 24.9067Z" fill="#232323"/>
<path d="M15.2453 19.301C15.4509 19.301 15.6564 19.1932 15.7935 19.0495C15.9648 18.8698 16.0333 18.6902 16.0333 18.4386C16.0333 18.1871 15.9648 17.9715 15.7935 17.7918C15.6222 17.648 15.4509 17.5762 15.2453 17.5762C15.0055 17.5762 14.7999 17.648 14.6629 17.7918C14.4916 17.9715 14.4231 18.1871 14.4231 18.4386C14.4231 18.6902 14.4916 18.9058 14.6629 19.0495C14.7999 19.2292 15.0055 19.301 15.2453 19.301Z" fill="#232323"/>
<path d="M22.474 20.8818C22.2342 20.6303 21.9259 20.5225 21.6175 20.5225C21.3092 20.5225 21.0351 20.6303 20.7953 20.8818C20.5555 21.1334 20.4185 21.4208 20.4185 21.7442C20.4185 22.0677 20.5555 22.3551 20.7953 22.6067C21.0351 22.8582 21.3092 22.966 21.6175 22.966C21.9259 22.966 22.2342 22.8582 22.474 22.6067C22.6796 22.3551 22.7823 22.0677 22.7823 21.7442C22.7823 21.4208 22.6796 21.1334 22.474 20.8818Z" fill="#232323"/>
<path d="M7.05737 27.7816C6.54348 28.3206 6.26941 28.9674 6.26941 29.7221C6.26941 30.5126 6.54348 31.1954 7.05737 31.7344C7.57126 32.2734 8.18793 32.525 8.90737 32.525C9.66108 32.525 10.2777 32.2734 10.7916 31.7344C11.3055 31.1954 11.5796 30.5126 11.5796 29.7221C11.5796 28.9674 11.3055 28.3206 10.7916 27.7816C10.2777 27.2426 9.62682 26.9551 8.90737 26.9551C8.18793 26.9551 7.57126 27.2426 7.05737 27.7816Z" fill="#232323"/>
<path d="M2.63796 23.1099C1.88426 23.1099 1.26759 23.3973 0.787963 23.9364C0.274074 24.4394 0 25.0863 0 25.8768C0 26.6674 0.274074 27.3142 0.787963 27.8892C1.30185 28.4282 1.91852 28.6797 2.63796 28.6797C3.35741 28.6797 4.00833 28.4282 4.52222 27.8892C5.03611 27.3142 5.27592 26.6674 5.27592 25.8768C5.27592 25.1222 5.03611 24.4754 4.52222 23.9364C4.04259 23.3973 3.39167 23.1099 2.63796 23.1099Z" fill="#232323"/>
<path d="M8.94171 21.062C8.59912 21.062 8.32505 21.1698 8.11949 21.4214C7.91394 21.6729 7.81116 21.9604 7.81116 22.2838C7.81116 22.6431 7.91394 22.9306 8.11949 23.1462C8.35931 23.3978 8.63338 23.5056 8.94171 23.5056C9.2843 23.5056 9.55838 23.3978 9.76393 23.1462C10.0037 22.8947 10.1065 22.6072 10.1065 22.2838C10.1065 21.9604 10.0037 21.6729 9.76393 21.4214C9.55838 21.1698 9.2843 21.062 8.94171 21.062Z" fill="#232323"/>
<path d="M7.67407 15.0607C7.67407 15.4201 7.77685 15.7435 8.01667 15.995C8.25648 16.2466 8.56481 16.3903 8.87315 16.3903C9.25 16.3903 9.55833 16.2466 9.79815 15.995C10.038 15.7435 10.1407 15.4201 10.1407 15.0607C10.1407 14.7014 10.038 14.378 9.79815 14.1264C9.55833 13.8749 9.25 13.7671 8.87315 13.7671C8.53055 13.7671 8.25648 13.8749 8.01667 14.1264C7.81111 14.378 7.67407 14.7014 7.67407 15.0607Z" fill="#232323"/>
<path d="M4.55648 16.4261C4.04259 15.8871 3.39167 15.5996 2.67222 15.5996C1.95278 15.5996 1.30185 15.8871 0.822222 16.4261C0.274074 16.9651 0 17.612 0 18.4025C0 19.1931 0.274074 19.8399 0.787963 20.3789C1.30185 20.918 1.91852 21.1695 2.63796 21.1695C3.35741 21.1695 4.00833 20.918 4.52222 20.3789C5.03611 19.8399 5.27593 19.1931 5.27593 18.4025C5.31019 17.612 5.07037 16.9651 4.55648 16.4261Z" fill="#232323"/>
<path d="M4.55648 9.20345C4.04259 8.6285 3.39167 8.37695 2.63796 8.37695C1.88426 8.37695 1.26759 8.66443 0.787963 9.20345C0.274074 9.74247 0 10.3893 0 11.1799C0 11.9345 0.274074 12.6173 0.787963 13.1563C1.30185 13.6953 1.91852 13.9468 2.63796 13.9468C3.35741 13.9468 4.00833 13.6953 4.52222 13.1563C5.03611 12.6173 5.27593 11.9345 5.27593 11.1799C5.31019 10.3893 5.07037 9.74247 4.55648 9.20345Z" fill="#232323"/>
<path d="M11.6139 7.04725C11.6139 6.25668 11.3398 5.60986 10.8259 5.10677C10.312 4.53182 9.66112 4.28027 8.94168 4.28027C8.22223 4.28027 7.60556 4.56775 7.09167 5.10677C6.57779 5.64579 6.30371 6.29262 6.30371 7.04725C6.30371 7.83781 6.57779 8.48463 7.09167 9.02366C7.60556 9.56268 8.22223 9.85015 8.94168 9.85015C9.69538 9.85015 10.312 9.56268 10.8259 9.02366C11.3398 8.48463 11.6139 7.80187 11.6139 7.04725Z" fill="#232323"/>
<path d="M22.3712 13.7668C22.1657 13.5512 21.8916 13.4434 21.6175 13.4434C21.3434 13.4434 21.1036 13.5512 20.8981 13.7668C20.6925 13.9824 20.5897 14.2339 20.5897 14.5214C20.5897 14.8448 20.6925 15.0964 20.8981 15.312C21.1036 15.5276 21.3434 15.5994 21.6175 15.5994C21.9258 15.5994 22.1657 15.4916 22.3712 15.312C22.5425 15.0964 22.6453 14.8448 22.6453 14.5214C22.6453 14.2339 22.5425 13.9824 22.3712 13.7668Z" fill="#232323"/>
<path d="M15.9648 11.4672C16.1704 11.2157 16.2732 10.9642 16.2732 10.6767C16.2732 10.3892 16.1704 10.1377 15.9648 9.92204C15.7593 9.70644 15.5195 9.59863 15.2111 9.59863C14.9371 9.59863 14.6972 9.70644 14.4917 9.92204C14.2861 10.1377 14.1833 10.3892 14.1833 10.6767C14.1833 10.9642 14.2861 11.2516 14.4917 11.4672C14.5945 11.575 14.7315 11.6469 14.8685 11.6828C14.9713 11.7188 15.0741 11.7547 15.2111 11.7547C15.2454 11.7547 15.2454 11.7547 15.2454 11.7547C15.5195 11.7188 15.7593 11.6469 15.9648 11.4672Z" fill="#232323"/>
<path d="M17.0953 0.938315C16.9583 0.794576 16.8213 0.686772 16.65 0.578968C16.2389 0.255555 15.7592 0.111816 15.2111 0.111816C14.4916 0.111816 13.875 0.399294 13.3611 0.938315C13.224 1.08205 13.087 1.26173 12.9842 1.4414C12.7102 1.87262 12.5731 2.33977 12.5731 2.91473C12.5731 3.16627 12.6074 3.38188 12.6759 3.63342V3.66935C12.7787 4.10057 13.0185 4.49585 13.3611 4.8552C13.875 5.39422 14.4916 5.64576 15.2111 5.64576C15.9648 5.64576 16.5815 5.39422 17.0953 4.8552C17.6092 4.31618 17.849 3.63342 17.849 2.87879C17.849 2.12416 17.6092 1.51327 17.1639 1.01018V0.97425C17.1296 0.97425 17.1296 0.97425 17.0953 0.938315Z" fill="#232323"/>
<path d="M24.2555 7.04725C24.2555 6.25668 24.0157 5.60986 23.5018 5.10677C22.988 4.53182 22.337 4.28027 21.6176 4.28027C20.8639 4.28027 20.2472 4.56775 19.7333 5.10677C19.2194 5.64579 18.9796 6.29262 18.9796 7.04725C18.9796 7.83781 19.2194 8.48463 19.7333 9.02366C20.2472 9.56268 20.8639 9.85015 21.6176 9.85015C22.3713 9.85015 22.988 9.56268 23.5018 9.02366C24.0157 8.48463 24.2555 7.80187 24.2555 7.04725Z" fill="#232323"/>
<path d="M30.6621 25.6254C30.6621 24.8348 30.4223 24.188 29.9084 23.6849C29.3945 23.1459 28.7436 22.8584 28.0241 22.8584C27.3047 22.8584 26.6538 23.1459 26.1399 23.6849C25.5917 24.188 25.3519 24.8348 25.3519 25.6254C25.3519 26.4159 25.5917 27.0628 26.1056 27.6018C26.6195 28.1408 27.2704 28.3924 27.9899 28.3924C28.7436 28.3924 29.3603 28.1408 29.8741 27.6018C30.4223 27.0628 30.6621 26.38 30.6621 25.6254Z" fill="#232323"/>
<path d="M28.0241 19.0137C28.1611 19.0137 28.2982 18.9777 28.4009 18.8699C28.5037 18.7262 28.5722 18.5825 28.5722 18.4387C28.5722 18.2591 28.5037 18.1512 28.4009 18.0434C28.2639 17.9356 28.1611 17.8638 28.0241 17.8638C27.8528 17.8638 27.7158 17.9356 27.6472 18.0434C27.5102 18.1512 27.476 18.295 27.476 18.4387C27.476 18.5825 27.5445 18.7262 27.6472 18.8699C27.7158 18.9418 27.8528 19.0137 28.0241 19.0137Z" fill="#232323"/>
<path d="M29.9084 8.9515C29.3945 8.41248 28.7436 8.125 28.0241 8.125C27.3047 8.125 26.6538 8.41248 26.1399 8.9515C25.5917 9.49052 25.3519 10.1373 25.3519 10.892C25.3519 11.6825 25.5917 12.3294 26.1056 12.8684C26.6195 13.4074 27.2704 13.6589 27.9899 13.6589C28.7436 13.6589 29.3603 13.4074 29.8741 12.8684C30.388 12.3294 30.6278 11.6466 30.6278 10.892C30.6621 10.1373 30.4223 9.49052 29.9084 8.9515Z" fill="#232323"/>
<path d="M46.6611 3.1665C49.4361 3.1665 51.4231 4.85544 51.9027 7.58648H50.3611C49.8814 5.7538 48.5111 4.67576 46.5925 4.67576C43.9546 4.67576 42.2759 6.79591 42.2759 9.85036C42.2759 12.8689 43.9546 15.025 46.5925 15.025C48.5111 15.025 49.8472 13.9469 50.3268 12.1143H51.8685C51.3888 14.8453 49.4361 16.5342 46.6611 16.5342C43.0296 16.5342 40.7 13.8751 40.7 9.85036C40.7 5.86161 43.0296 3.1665 46.6611 3.1665Z" fill="#232323"/>
<path d="M57.4186 6.72412C59.9195 6.72412 61.6667 8.41305 61.7352 11.2519C61.7352 11.4675 61.701 11.6831 61.701 11.8987H54.6093V12.0425C54.6778 13.9111 55.7741 15.1328 57.4871 15.1328C58.7889 15.1328 59.7824 14.4142 60.0908 13.1924H61.5639C61.2213 15.0969 59.7139 16.4984 57.5899 16.4984C54.8491 16.4984 53.0676 14.522 53.0676 11.6112C53.1019 8.70053 54.8491 6.72412 57.4186 6.72412ZM60.2278 10.641C60.0908 8.98801 58.9602 8.08964 57.4528 8.08964C56.1167 8.08964 54.8834 9.09581 54.7463 10.641H60.2278V10.641Z" fill="#232323"/>
<path d="M67.5934 6.83203V8.34129H66.8739C64.9554 8.34129 64.4415 9.99429 64.4415 11.5395V16.4266H62.9684V6.83203H64.236L64.4415 8.26942C64.8869 7.55073 65.5721 6.83203 67.1823 6.83203H67.5934Z" fill="#232323"/>
<path d="M69.8888 8.26941H68.2444V6.86796H69.8888V4.17285H71.362V6.86796H73.6574V8.26941H71.362V13.9112C71.362 14.7017 71.6361 15.0251 72.3555 15.0251H73.9314V16.4266H72.2527C70.5055 16.4266 69.8888 15.636 69.8888 13.9471V8.26941Z" fill="#232323"/>
<path d="M82.7018 6.83203V16.3907H81.4342L81.2286 15.133C80.6805 15.8516 79.824 16.5344 78.3166 16.5344C76.3295 16.5344 74.7194 15.3486 74.7194 12.1863V6.83203H76.1925V12.0785C76.1925 14.0549 77.049 15.133 78.5564 15.133C80.2351 15.133 81.2286 13.8034 81.2286 11.6473V6.83203H82.7018Z" fill="#232323"/>
<path d="M85.374 13.2644C85.4425 14.3784 86.4018 15.2048 87.8749 15.2048C89.1425 15.2048 90.0332 14.6299 90.0332 13.7315C90.0332 12.5457 89.0397 12.4019 87.7036 12.2223C85.7166 11.9707 84.1064 11.5754 84.1064 9.5631C84.1064 7.8023 85.6138 6.65238 87.6351 6.68832C89.6906 6.72425 91.1638 7.73043 91.3008 9.74277H89.8277C89.7249 8.77253 88.8342 8.0179 87.6008 8.0179C86.3675 8.0179 85.511 8.59286 85.511 9.49123C85.511 10.5333 86.4703 10.6411 87.7379 10.8208C89.7592 11.0724 91.4379 11.5395 91.4379 13.6597C91.4379 15.4564 89.8277 16.5344 87.8406 16.5344C85.511 16.5344 83.9008 15.3845 83.8666 13.2644H85.374V13.2644Z" fill="#232323"/>
<path d="M46.6611 19.2651C49.4361 19.2651 51.4231 20.9541 51.9027 23.6851H50.3611C49.8814 21.8524 48.5111 20.7744 46.5925 20.7744C43.9546 20.7744 42.2759 22.8945 42.2759 25.949C42.2759 28.9675 43.9546 31.1236 46.5925 31.1236C48.5111 31.1236 49.8472 30.0456 50.3268 28.2129H51.8685C51.3888 30.9439 49.4361 32.6329 46.6611 32.6329C43.0296 32.6329 40.7 29.9737 40.7 25.949C40.7 21.9602 43.0296 19.2651 46.6611 19.2651Z" fill="#232323"/>
<path d="M54.712 22.9307L57.5212 30.7285L60.2277 22.9307H61.7694L57.5555 34.1064C56.9731 35.6516 56.6305 36.2265 55.3629 36.2265H53.6157V34.8251H54.9175C55.774 34.8251 55.8768 34.6094 56.2536 33.7111L56.7333 32.5612L53.1703 22.9307H54.712Z" fill="#232323"/>
<path d="M71.8075 27.7099C71.8075 30.6206 69.9575 32.597 67.4223 32.597C65.8806 32.597 64.8528 31.9502 64.3047 31.0159L64.0991 32.4892H62.8315V19.373H64.3047V24.4758C64.9214 23.5774 65.8806 22.8228 67.4223 22.8228C69.9232 22.8228 71.8075 24.5836 71.8075 27.7099ZM70.3001 27.7099C70.3001 25.6257 69.101 24.1883 67.2852 24.1883C65.5038 24.1883 64.2704 25.6257 64.2704 27.674C64.2704 29.7582 65.4695 31.2315 67.2852 31.2315C69.0667 31.2315 70.3001 29.7941 70.3001 27.7099Z" fill="#232323"/>
<path d="M76.9121 22.8228C79.413 22.8228 81.1602 24.5117 81.2288 27.3505C81.2288 27.5661 81.1945 27.7817 81.1945 27.9974H74.1028V28.1411C74.1713 30.0097 75.2676 31.2315 76.9806 31.2315C78.2825 31.2315 79.276 30.5128 79.5843 29.291H81.0575C80.7149 31.1955 79.2075 32.597 77.0834 32.597C74.3426 32.597 72.5612 30.6206 72.5612 27.7099C72.5954 24.7632 74.3426 22.8228 76.9121 22.8228ZM79.7213 26.7396C79.5843 25.0866 78.4538 24.1883 76.9463 24.1883C75.6102 24.1883 74.3769 25.1944 74.2399 26.7396H79.7213Z" fill="#232323"/>
<path d="M87.4297 22.9307V24.4399H86.7102C84.7917 24.4399 84.2778 26.0929 84.2778 27.6381V32.5252H82.8047V22.9307H84.0723L84.2778 24.3681C84.7232 23.6494 85.4084 22.9307 87.0186 22.9307H87.4297Z" fill="#232323"/>
<path d="M89.6908 29.3269C89.7593 30.4409 90.7185 31.2674 92.1917 31.2674C93.4593 31.2674 94.35 30.6924 94.35 29.794C94.35 28.6082 93.3565 28.4644 92.0204 28.2848C90.0334 28.0332 88.4232 27.6379 88.4232 25.6256C88.4232 23.8648 89.9306 22.7149 91.9519 22.7508C94.0074 22.7868 95.4806 23.7929 95.6176 25.8053H94.1445C94.0417 24.835 93.1509 24.0804 91.9176 24.0804C90.6843 24.0804 89.8278 24.6554 89.8278 25.5537C89.8278 26.5958 90.7871 26.7036 92.0546 26.8833C94.0759 27.1349 95.7546 27.602 95.7546 29.7222C95.7546 31.5189 94.1445 32.5969 92.1574 32.5969C89.8278 32.5969 88.2176 31.447 88.1833 29.3269H89.6908V29.3269Z" fill="#232323"/>
<path d="M100.894 22.8228C103.394 22.8228 105.142 24.5117 105.21 27.3505C105.21 27.5661 105.176 27.7817 105.176 27.9974H98.0843V28.1411C98.1528 30.0097 99.2491 31.2315 100.962 31.2315C102.264 31.2315 103.257 30.5128 103.566 29.291H105.039C104.696 31.1955 103.189 32.597 101.065 32.597C98.3241 32.597 96.5426 30.6206 96.5426 27.7099C96.5769 24.7632 98.3241 22.8228 100.894 22.8228ZM103.703 26.7396C103.566 25.0866 102.435 24.1883 100.928 24.1883C99.5917 24.1883 98.3584 25.1944 98.2213 26.7396H103.703Z" fill="#232323"/>
<path d="M110.452 32.5968C107.78 32.5968 106.032 30.6204 106.032 27.6737C106.032 24.7271 107.848 22.7866 110.52 22.7866C112.713 22.7866 114.118 24.1162 114.494 26.1645H113.021C112.747 24.9427 111.788 24.1521 110.486 24.1521C108.739 24.1521 107.54 25.5895 107.54 27.6737C107.54 29.758 108.705 31.2313 110.486 31.2313C111.822 31.2313 112.782 30.4407 113.056 29.183H114.529C114.118 31.3032 112.644 32.5968 110.452 32.5968Z" fill="#232323"/>
<path d="M123.505 22.9307V32.4893H122.237L122.031 31.2316C121.483 31.9503 120.627 32.633 119.119 32.633C117.132 32.633 115.522 31.4472 115.522 28.2849V22.9307H116.995V28.1771C116.995 30.1535 117.852 31.2316 119.359 31.2316C121.038 31.2316 122.031 29.902 122.031 27.7459V22.9307H123.505Z" fill="#232323"/>
<path d="M129.74 22.9307V24.4399H129.02C127.102 24.4399 126.588 26.0929 126.588 27.6381V32.5252H125.115V22.9307H126.382L126.588 24.3681C127.033 23.6494 127.719 22.9307 129.329 22.9307H129.74Z" fill="#232323"/>
<path d="M132.549 20.2357C132.549 20.8106 132.138 21.2418 131.59 21.2418C131.042 21.2418 130.631 20.8466 130.631 20.2357C130.631 19.6248 131.042 19.2295 131.59 19.2295C132.138 19.2295 132.549 19.6607 132.549 20.2357ZM132.309 22.9308V32.4894H130.87V22.9308H132.309Z" fill="#232323"/>
<path d="M134.913 24.3319H133.269V22.9305H134.913V20.2354H136.386V22.9305H138.682V24.3319H136.386V29.9737C136.386 30.7642 136.66 31.0876 137.38 31.0876H138.956V32.4891H137.277C135.53 32.4891 134.913 31.6985 134.913 30.0096V24.3319V24.3319Z" fill="#232323"/>
<path d="M140.943 22.9307L143.752 30.7285L146.458 22.9307H148L143.786 34.1064C143.204 35.6516 142.861 36.2265 141.593 36.2265H139.846V34.8251H141.148C142.005 34.8251 142.107 34.6094 142.484 33.7111L142.964 32.5612L139.401 22.9307H140.943Z" fill="#232323"/>
</svg>
