<svg xmlns="http://www.w3.org/2000/svg" class="navbar-logo" viewBox="0 0 306.85 89.36" width="230" height="67"><path fill="#fff" d="M306.85 61.56a5.18 5.18 0 01-5.17 5.19H5.17A5.17 5.17 0 010 61.56V5.19A5.17 5.17 0 015.17 0h296.51a5.18 5.18 0 015.17 5.19z"></path><path fill="#333c42" d="M305.33 61.57a4 4 0 01-3.66 3.67H5.14a3.89 3.89 0 01-3.62-3.67V5.2a3.91 3.91 0 013.64-3.68h296.51a4 4 0 013.66 3.67z"></path><path fill="#fff" d="M64.85 57c0 2.89-1.06 4-3.94 4H9.42c-2.89 0-3.94-1.06-3.94-4V9.49c0-2.89 1-3.94 3.94-3.94h51.49c2.88 0 3.94 1 3.94 3.94z"></path><path fill="#6f8591" d="M35.44 6.23l8.51 17.24 19.03 2.77-13.77 13.42 3.25 18.95-17.02-8.95-17.02 8.95 3.25-18.95L7.9 26.24l19.03-2.77 8.51-17.24z"></path><path fill="#a2bfce" d="M35.44 6.23l8.51 17.24-3.65 10.19 22.68-7.42-13.77 13.42-7.27 4.49 10.52 14.46-17.02-8.95-5.7-6.69-11.32 15.64 3.25-18.95 5.36-7.21L7.9 26.24l18.42-2.68 9.13 3.61-.01-20.94z"></path><circle fill="#fff" cx="35.41" cy="34.7" r="16.02"></circle><path fill="#333c42" d="M50.34 34.7a14.93 14.93 0 11-14.93-14.93A14.94 14.94 0 0150.34 34.7z"></path><path fill="#fff" d="M47.79 34.7a12.38 12.38 0 11-12.38-12.38A12.38 12.38 0 0147.79 34.7z"></path><path fill="#f7941d" d="M46.7 34.7a11.29 11.29 0 11-11.29-11.29A11.3 11.3 0 0146.7 34.7z"></path><path fill="#fff" d="M78 42.18a15.09 15.09 0 007 1.88c2.91 0 4.45-1.3 4.45-3.27s-1.33-3-4.7-4.22C80.07 34.78 77 32 77 27.6c0-5.16 4-9.06 10.6-9.06a15.43 15.43 0 017.15 1.52l-1.42 5.48a12.2 12.2 0 00-5.81-1.44c-2.75 0-4.08 1.39-4.08 2.92 0 1.93 1.54 2.78 5.2 4.26 4.94 2 7.23 4.75 7.23 9 0 5.06-3.58 9.37-11.26 9.37a17.21 17.21 0 01-7.94-1.88zm38.84-5.74h-10.3v7.18h11.51v5.6h-17.83V19h17.24v5.6h-10.92v6.28h10.3zm26.05 11.97a17.21 17.21 0 01-7.14 1.31c-9.68 0-14.67-6.55-14.67-15.17 0-10.32 6.81-16 15.29-16a14.92 14.92 0 016.9 1.34l-1.33 5.39a12.44 12.44 0 00-5.32-1.12c-5 0-8.89 3.27-8.89 10 0 6.06 3.32 9.87 8.93 9.87A14 14 0 00142 43zm33.11 0a17.22 17.22 0 01-7.15 1.31c-9.68 0-14.66-6.55-14.66-15.17 0-10.32 6.81-16 15.29-16a14.87 14.87 0 016.89 1.34l-1.33 5.39a12.36 12.36 0 00-5.31-1.12c-5 0-8.9 3.27-8.9 10 0 6.06 3.33 9.87 8.94 9.87a13.89 13.89 0 005.31-1zM199.28 38c0 8-5.28 11.71-10.72 11.71-5.94 0-10.51-4.22-10.51-11.31s4.32-11.66 10.88-11.66c6.19.01 10.35 4.63 10.35 11.26zm-14.71.22c0 3.77 1.45 6.6 4.15 6.6 2.5 0 4-2.65 4-6.64 0-3.23-1.16-6.55-4-6.55s-4.15 3.37-4.15 6.6zm18.61-3.94c0-2.73-.08-5-.16-7h5.48l.29 3.05h.13a7.18 7.18 0 016.27-3.55c4.16 0 7.27 3 7.27 9.47v13h-6.31V37.07c0-2.83-.92-4.76-3.2-4.76a3.5 3.5 0 00-3.24 2.56 5.14 5.14 0 00-.21 1.7v12.65h-6.32zm24.31 9.02a11.74 11.74 0 005.44 1.62c1.92 0 2.71-.68 2.71-1.8s-.63-1.7-3-2.56c-4.23-1.52-5.85-4-5.81-6.59 0-4.13 3.24-7.22 8.27-7.22a12.6 12.6 0 015.69 1.3l-1.08 4.71a9.57 9.57 0 00-4.41-1.26c-1.53 0-2.41.67-2.41 1.75s.79 1.62 3.29 2.56c3.86 1.43 5.44 3.59 5.48 6.77 0 4.13-2.95 7.14-8.77 7.14a13.58 13.58 0 01-6.56-1.57zm37.23-1.12c0 2.87.08 5.2.17 7h-5.49l-.29-3.09H259a7.17 7.17 0 01-6.36 3.59c-4.16 0-7.15-2.79-7.15-9.56V27.29h6.32v11.79c0 3.19.95 5.12 3.2 5.12a3.4 3.4 0 003.16-2.38 4 4 0 00.25-1.48V27.29h6.31zm5.07-24.81h6.32v31.85h-6.32zm18.49 3.99v5.93h4.53v5h-4.53v7.94c0 2.65.62 3.86 2.49 3.86a7.37 7.37 0 001.87-.18v5.16a12.43 12.43 0 01-4.07.58 6.49 6.49 0 01-4.78-1.88c-1.16-1.3-1.74-3.41-1.74-6.51v-9h-2.7v-5h2.7V23.2z"></path><path fill="#808184" d="M171.35 84.79a4.38 4.38 0 01-3.49 1.49c-1.91 0-3.3-1-3.3-3s1.71-3 4.1-3a11 11 0 012.69.31v-1.8c0-1.59-1-2.16-2.51-2.16a5 5 0 00-3.18.91h-.41v-.81a7.27 7.27 0 013.63-.88c2.07 0 3.44.76 3.44 2.88v7.45h-.27c-.57 0-.7-.18-.7-1zm0-.94v-2.51a11.64 11.64 0 00-2.63-.31c-1.81 0-3.16.64-3.16 2.21a2.13 2.13 0 002.44 2.27 4 4 0 003.35-1.66zm4.7-6.26a7.29 7.29 0 014.49-1.74c1.43 0 2.65.59 2.65 2.72v7.61h-1v-7.49c0-1.62-.89-2-2-2a7.21 7.21 0 00-4.12 1.73v7.78h-1V76h.45c.43 0 .53.12.53 1zm20.53 7.2a4.38 4.38 0 01-3.49 1.49c-1.91 0-3.3-1-3.3-3s1.71-3 4.1-3a11 11 0 012.69.31v-1.8c0-1.59-1-2.16-2.51-2.16a5 5 0 00-3.18.91h-.41v-.81a7.27 7.27 0 013.63-.88c2.07 0 3.45.76 3.45 2.88v7.45h-.28c-.57 0-.7-.18-.7-1zm0-.94v-2.51A11.64 11.64 0 00194 81c-1.81 0-3.16.64-3.16 2.21a2.13 2.13 0 002.43 2.27 4 4 0 003.31-1.63zm2.54-7.85h1.36v-2.87h1V76h2.72v.74h-2.72v7.14c0 1.23.57 1.61 1.76 1.61h1.18v.68a9.07 9.07 0 01-1.51.12c-1.57 0-2.41-.67-2.41-2.29v-7.29h-1.36zm6.04 5.06c0-3.21 1.92-5.21 4.75-5.21s4.76 2 4.76 5.21-1.9 5.2-4.76 5.2-4.75-1.96-4.75-5.2zm8.51 0c0-2.78-1.43-4.45-3.76-4.45s-3.75 1.67-3.75 4.45 1.43 4.43 3.75 4.43 3.76-1.62 3.76-4.43zm2.24 4.24v-.81h.39a4 4 0 002.86 1c1.88 0 2.78-.78 2.78-2.19 0-1.2-.66-1.69-2.74-2s-3.2-1-3.2-2.72 1.4-2.71 3.43-2.71a5.19 5.19 0 013 .76v.81H222a3.63 3.63 0 00-2.55-.81c-1.66 0-2.52.63-2.52 1.87s.68 1.62 2.66 2c2.14.33 3.31 1 3.31 2.78s-1.15 3-3.7 3a5.19 5.19 0 01-3.29-.98zM229 81c0-3.23 2-5.19 4.84-5.19a4.79 4.79 0 013.2 1v.78h-.51a3.57 3.57 0 00-2.71-1c-2.27 0-3.82 1.63-3.82 4.41s1.43 4.43 3.82 4.43a3.72 3.72 0 002.94-1.17h.46V85a4.83 4.83 0 01-3.44 1.22c-3.03.04-4.78-1.96-4.78-5.22zm9.37.06c0-3.21 1.92-5.21 4.75-5.21s4.76 2 4.76 5.21-1.9 5.2-4.76 5.2-4.75-1.96-4.75-5.2zm8.51 0c0-2.78-1.43-4.45-3.76-4.45s-3.75 1.67-3.75 4.45 1.43 4.43 3.75 4.43 3.76-1.62 3.76-4.43zm4.04-3.54a6.59 6.59 0 014.08-1.67 2.28 2.28 0 012.43 1.69 6.45 6.45 0 014.11-1.69 2.29 2.29 0 012.53 2.51v7.82h-1v-7.57c0-1.51-.72-1.94-1.9-1.94a6.05 6.05 0 00-3.69 1.65v7.86h-1v-7.57c0-1.51-.78-1.94-1.88-1.94a5.85 5.85 0 00-3.72 1.67v7.84h-1V76h.45c.43 0 .53.12.53 1zm16.86.27a5.08 5.08 0 013.88-1.94c1.94 0 3.92 1.16 3.92 5.06s-2.28 5.29-4.39 5.29a4.7 4.7 0 01-3.41-1.2v4.36h-1V76h.45c.43 0 .53.12.53 1zm0 1v5.31a4 4 0 003.22 1.32c1.69 0 3.57-.89 3.57-4.41s-1.65-4.36-3.08-4.36a4.93 4.93 0 00-3.71 2.1zm15.82 6a4.37 4.37 0 01-3.49 1.49c-1.9 0-3.3-1-3.3-3s1.71-3 4.1-3a11 11 0 012.69.31v-1.8c0-1.59-1-2.16-2.51-2.16a5 5 0 00-3.18.91h-.41v-.81a7.27 7.27 0 013.63-.88c2.08 0 3.45.76 3.45 2.88v7.45h-.28c-.56 0-.7-.18-.7-1zm0-.94v-2.51A11.64 11.64 0 00281 81c-1.8 0-3.16.64-3.16 2.21a2.13 2.13 0 002.44 2.27 4 4 0 003.32-1.63zm4.7-6.26a7.29 7.29 0 014.49-1.74c1.43 0 2.65.59 2.65 2.72v7.61h-1v-7.49c0-1.62-.88-2-2-2a7.21 7.21 0 00-4.12 1.73v7.78h-1V76h.45c.43 0 .53.12.53 1zM299.58 89l1.54-3.57-4.07-9.21V76h.9l3.64 8.35 3.47-8.35h.94v.29l-5.51 13.1h-.86z"></path></svg>
